<?xml version="1.0" encoding="utf-8"?>
<!-- Generator: Adobe Illustrator 16.0.0, SVG Export Plug-In . SVG Version: 6.00 Build 0)  -->
<!DOCTYPE svg PUBLIC "-//W3C//DTD SVG 1.0//EN" "http://www.w3.org/TR/2001/REC-SVG-20010904/DTD/svg10.dtd">
<svg version="1.0" id="Livello_1" xmlns="http://www.w3.org/2000/svg" xmlns:xlink="http://www.w3.org/1999/xlink" x="0px" y="0px"
	 width="67px" height="78px" viewBox="0 0 67 78" enable-background="new 0 0 67 78" xml:space="preserve">
<g>
	<g>
		<path fill-rule="evenodd" clip-rule="evenodd" fill="#FFFFFF" d="M33.029,62.825c0,0,2.439-0.654,2.775-1.101
			c0.336-0.447,0.67-0.991,0.99-1.55c0.334-0.558,1.229-1.229,1.994-1.661c0.783-0.447,3.225-1.771,3.672-2.106
			c0.432-0.335,0.543,0,1.102,0s1.66,0.655,2.105,1.996c0.447,1.325,1.885,5.093,2.107,5.651c0.225,0.559-3.225,1.996-4.436,2.332
			c-1.215,0.335-3.656,0.335-4.438-0.113c-0.768-0.446-5.651-2.442-5.984-2.442C32.582,63.831,33.029,62.825,33.029,62.825"/>
		<path fill="none" stroke="#231F20" stroke-width="0.22" stroke-miterlimit="2.613" d="M33.029,62.825c0,0,2.439-0.654,2.775-1.101
			c0.336-0.447,0.67-0.991,0.99-1.55c0.334-0.558,1.229-1.229,1.994-1.661c0.783-0.447,3.225-1.771,3.672-2.106
			c0.432-0.335,0.543,0,1.102,0s1.66,0.655,2.105,1.996c0.447,1.325,1.885,5.093,2.107,5.651c0.225,0.559-3.225,1.996-4.436,2.332
			c-1.215,0.335-3.656,0.335-4.438-0.113c-0.768-0.446-5.651-2.442-5.984-2.442C32.582,63.831,33.029,62.825,33.029,62.825z"/>
		<path fill-rule="evenodd" clip-rule="evenodd" fill="#FFFFFF" d="M30.587,62.825c0,0-2.425-0.654-2.761-1.101
			c-0.334-0.447-0.67-0.991-1.005-1.55c-0.319-0.558-1.213-1.229-1.995-1.661c-0.767-0.447-3.208-1.771-3.655-2.106
			c-0.448-0.335-0.56,0-1.102,0c-0.559,0-1.661,0.655-2.107,1.996c-0.447,1.325-1.883,5.093-2.106,5.651
			c-0.224,0.559,3.208,1.996,4.437,2.332c1.213,0.335,3.655,0.335,4.421-0.113c0.782-0.446,5.666-2.442,5.985-2.442
			C31.034,63.831,30.587,62.825,30.587,62.825"/>
		<path fill="none" stroke="#231F20" stroke-width="0.22" stroke-miterlimit="2.613" d="M30.587,62.825c0,0-2.425-0.654-2.761-1.101
			c-0.334-0.447-0.67-0.991-1.005-1.55c-0.319-0.558-1.213-1.229-1.995-1.661c-0.767-0.447-3.208-1.771-3.655-2.106
			c-0.448-0.335-0.56,0-1.102,0c-0.559,0-1.661,0.655-2.107,1.996c-0.447,1.325-1.883,5.093-2.106,5.651
			c-0.224,0.559,3.208,1.996,4.437,2.332c1.213,0.335,3.655,0.335,4.421-0.113c0.782-0.446,5.666-2.442,5.985-2.442
			C31.034,63.831,30.587,62.825,30.587,62.825z"/>
		<path fill-rule="evenodd" clip-rule="evenodd" fill="#565656" d="M11.355,41.559v0.017l-1.293,0.415l-0.877-0.192l-0.75-2.313
			l0.416-0.608l1.5-0.479l-0.016-0.031c-0.144-0.543-0.239-1.134-0.335-1.676c-0.097-0.607-0.16-1.214-0.208-1.837H8.434
			l-0.782-0.432V31.98l0.574-0.447h1.58v-0.048c0.032-0.559,0.112-1.134,0.208-1.677c0.08-0.606,0.208-1.213,0.367-1.804
			l-0.016-0.016l-1.293-0.415l-0.589-0.654l0.749-2.332l0.687-0.239l1.5,0.494v-0.048c0.223-0.511,0.479-1.037,0.717-1.532
			c0.288-0.559,0.591-1.086,0.911-1.612l-1.102-0.799l-0.367-0.813l1.437-1.98l0.733-0.016l1.277,0.927l0.016-0.032
			c0.351-0.431,0.766-0.862,1.149-1.246c0.431-0.431,0.894-0.846,1.356-1.244v-0.017l-0.797-1.084l-0.096-0.895l1.979-1.437
			l0.702,0.207l0.925,1.278l0.016-0.032c0.479-0.288,0.911-0.511,1.389-0.767c0.543-0.287,1.213-0.589,1.787-0.814v-0.015
			l-0.431-1.293l0.192-0.862l2.314-0.767l0.606,0.416l0.479,1.517l0.048-0.033c0.543-0.127,1.005-0.224,1.548-0.303l0.112-0.016
			c0.606-0.096,1.212-0.176,1.836-0.207v-0.016V9.947l0.43-0.782h2.442l0.447,0.591v1.581l0.049-0.016
			c0.559,0.047,1.131,0.127,1.672,0.207c0.609,0.095,1.215,0.224,1.805,0.367h0.016l0.416-1.293l0.654-0.606l2.33,0.75l0.24,0.703
			l-0.496,1.5h0.047c0.512,0.208,1.039,0.463,1.533,0.719c0.559,0.271,1.086,0.574,1.611,0.91v-0.016l0.799-1.102l0.814-0.367
			l1.979,1.437l0.018,0.735l-0.926,1.277l0.031,0.016c0.432,0.368,0.861,0.766,1.244,1.166c0.432,0.416,0.848,0.879,1.244,1.357
			h0.018l1.1-0.798l0.879-0.112l1.436,1.979l-0.205,0.703l-1.277,0.927l0.031,0.032c0.287,0.479,0.574,0.99,0.83,1.485
			c0.27,0.542,0.525,1.102,0.75,1.676h0.016l1.293-0.416l0.879,0.176l0.748,2.315l-0.414,0.606l-1.502,0.495l0.018,0.032
			c0.129,0.542,0.238,1.118,0.32,1.661c0.111,0.607,0.174,1.214,0.223,1.836h1.355l0.783,0.447v2.443l-0.592,0.447h-1.58h0.018
			c-0.049,0.559-0.129,1.181-0.207,1.724c-0.098,0.607-0.225,1.198-0.369,1.805l1.293,0.415l0.607,0.67l-0.75,2.314l-0.688,0.24
			l-1.516-0.479v0.032c-0.207,0.527-0.463,1.055-0.719,1.55c-0.271,0.542-0.574,1.084-0.91,1.596l0.018,0.016l1.102,0.798
			l0.367,0.814l-1.438,1.963l-0.734,0.033l-1.277-0.942l-0.016,0.049c-0.367,0.431-0.766,0.846-1.166,1.244
			c-0.414,0.433-0.875,0.847-1.355,1.246l0.799,1.103l0.111,0.894l-1.979,1.421l-0.703-0.208l-0.926-1.276l-0.031,0.031
			c-0.48,0.303-0.988,0.575-1.484,0.83c-0.543,0.287-1.102,0.526-1.678,0.767l0.418,1.294l-0.178,0.878l-2.313,0.749l-0.607-0.414
			l-0.494-1.502l-0.033,0.033c-0.543,0.127-1.117,0.224-1.658,0.318c-0.607,0.096-1.213,0.16-1.836,0.208V56.6l-0.446,0.765h-2.442
			l-0.431-0.574v-1.58h-0.047c-0.559-0.032-1.134-0.111-1.692-0.192c-0.59-0.095-1.196-0.223-1.803-0.383v0.017l-0.415,1.293
			l-0.67,0.591l-2.314-0.751l-0.239-0.686l0.478-1.502h-0.032c-0.527-0.223-1.054-0.478-1.548-0.717
			c-0.542-0.272-1.069-0.592-1.596-0.912h-0.016l-0.798,1.102l-0.813,0.368L16.542,52l-0.016-0.734l0.926-1.276l-0.047-0.017
			c-0.431-0.351-0.846-0.767-1.246-1.15c-0.431-0.43-0.846-0.892-1.245-1.356l-1.102,0.799l-0.894,0.096l-1.42-1.979l0.208-0.703
			l1.277-0.926l-0.032-0.016c-0.304-0.479-0.575-1.006-0.831-1.485C11.85,42.708,11.594,42.135,11.355,41.559"/>
		<path fill-rule="evenodd" clip-rule="evenodd" fill="#FFFFFF" d="M13.829,30.574c-0.128,0.879-0.191,1.773-0.191,2.699
			c0,4.949,1.995,9.435,5.204,12.709h-0.017l6.991-10.746l-11.97-4.694L13.829,30.574z"/>
		<path fill-rule="evenodd" clip-rule="evenodd" fill="#FFFFFF" d="M47.809,24.922c-2.539-4.901-7.279-8.494-12.896-9.483
			l0.67,12.693l12.242-3.242L47.809,24.922z"/>
		<path fill-rule="evenodd" clip-rule="evenodd" fill="#FFFFFF" d="M28.815,15.391c-5.682,0.927-10.469,4.503-13.088,9.404
			l0.017,0.017l12.385,3.321L28.815,15.391z"/>
		<path fill-rule="evenodd" clip-rule="evenodd" fill="#FFFFFF" d="M44.791,45.822c3.129-3.257,5.061-7.68,5.061-12.549
			c0-0.878-0.064-1.74-0.193-2.587l-11.779,4.551l6.865,10.632L44.791,45.822z"/>
		<path fill-rule="evenodd" clip-rule="evenodd" fill="#FFFFFF" d="M23.756,49.526c2.409,1.182,5.123,1.853,7.98,1.853
			c2.92,0,5.664-0.688,8.105-1.917l-7.994-9.851L23.756,49.526z"/>
		<polygon fill-rule="evenodd" clip-rule="evenodd" fill="#FFFFFF" points="22.081,46.716 25.815,35.237 16.047,28.132 
			28.129,28.132 31.848,16.653 35.582,28.132 47.648,28.132 37.896,35.237 41.615,46.716 31.848,39.627 		"/>
		<polygon fill="none" stroke="#231F20" stroke-width="0.22" stroke-miterlimit="2.613" points="22.081,46.716 25.815,35.237 
			16.047,28.132 28.129,28.132 31.848,16.653 35.582,28.132 47.648,28.132 37.896,35.237 41.615,46.716 31.848,39.627 		"/>
		<path fill-rule="evenodd" clip-rule="evenodd" fill="#FFFFFF" d="M55.531,50.021c0,0-0.828-1.995-1.004-3.991
			c-0.16-1.995-0.383-3.258-0.271-3.704c0.111-0.447-0.08-2.075,0.334-2.395c0.416-0.304,1.613-0.654,2.109-0.318
			c0,0,0.988-2.555,1.051-3.115c0.047-0.559,0.16-1.165,0.943-1.388c0.766-0.224,0.828,0.063,0.988-0.112
			c0.176-0.16,0.111-0.415,0.398-0.495c0.385-0.112,0.496-0.048,0.768-0.224c0.287-0.159,0.605-0.383,0.83-0.43
			c0.223-0.065,0.51,0.766,0.51,1.548c0,0.767-0.063,1.213-0.063,1.213s0.939,0.559,0.223,1.884c0,0,1.053,0.718,0.494,1.66
			c-0.543,0.942-1.275,1.678-2.154,2.108c0,0,1.213,1.277-0.941,3.225c-2.172,1.932-1.723,1.437-1.723,1.437s1.277,0.99-1.055,2.491
			C54.639,50.915,55.531,50.021,55.531,50.021"/>
		<path fill="none" stroke="#231F20" stroke-width="0.22" stroke-miterlimit="2.613" d="M55.531,50.021c0,0-0.828-1.995-1.004-3.991
			c-0.16-1.995-0.383-3.258-0.271-3.704c0.111-0.447-0.08-2.075,0.334-2.395c0.416-0.304,1.613-0.654,2.109-0.318
			c0,0,0.988-2.555,1.051-3.115c0.047-0.559,0.16-1.165,0.943-1.388c0.766-0.224,0.828,0.063,0.988-0.112
			c0.176-0.16,0.111-0.415,0.398-0.495c0.385-0.112,0.496-0.048,0.768-0.224c0.287-0.159,0.605-0.383,0.83-0.43
			c0.223-0.065,0.51,0.766,0.51,1.548c0,0.767-0.063,1.213-0.063,1.213s0.939,0.559,0.223,1.884c0,0,1.053,0.718,0.494,1.66
			c-0.543,0.942-1.275,1.678-2.154,2.108c0,0,1.213,1.277-0.941,3.225c-2.172,1.932-1.723,1.437-1.723,1.437s1.277,0.99-1.055,2.491
			C54.639,50.915,55.531,50.021,55.531,50.021z"/>
		<path fill-rule="evenodd" clip-rule="evenodd" fill="#FFFFFF" d="M50.043,50.244c0,0-1.213-0.111-1.213-1.438
			c0-1.324,0.158-0.047,0.158-0.047s0.289,0.095,0.336-0.063c0.064-0.16-0.445-1.103-0.719-1.214
			c-0.271-0.111-0.83-0.225-0.895-0.894c-0.047-0.671-0.223-0.99-0.223-0.99s-0.432-0.734,0.223-0.942
			c0.67-0.225,1.502-0.895,1.502-1.342c0-0.446-0.16-2.49-0.496-2.938c0,0-0.111-1.276-0.063-1.5c0.063-0.207,0.51-0.654,0.83-0.495
			c0.334,0.175,0.398-0.655,0.398-0.878c0-0.223,0.047-0.288,0.334-0.447c0.271-0.176,0.223-0.495,0.543-0.336
			c0.336,0.161,0.559,0.384,0.672,0.784c0.111,0.382,0.381,0.495,0.445,0.271c0.049-0.223,0.049-0.382,0.385-0.223
			c0.334,0.175,0.492,1.054,0.557,1.548c0.049,0.512-0.064,1.773-0.334,2.219c-0.271,0.447-0.607,1.389-0.447,1.662
			c0.176,0.286,0.494-0.05,0.83,0c0.334,0.063,0.223,1.116,0.176,1.675c-0.063,0.543-0.063,0.83-0.063,0.83s0.109-0.511,0.396-0.511
			c0.271,0,0.719,0.175,0.83,0.56C54.32,45.918,50.043,50.244,50.043,50.244"/>
		<path fill="none" stroke="#231F20" stroke-width="0.22" stroke-miterlimit="2.613" d="M50.043,50.244c0,0-1.213-0.111-1.213-1.438
			c0-1.324,0.158-0.047,0.158-0.047s0.289,0.095,0.336-0.063c0.064-0.16-0.445-1.103-0.719-1.214
			c-0.271-0.111-0.83-0.225-0.895-0.894c-0.047-0.671-0.223-0.99-0.223-0.99s-0.432-0.734,0.223-0.942
			c0.67-0.225,1.502-0.895,1.502-1.342c0-0.446-0.16-2.49-0.496-2.938c0,0-0.111-1.276-0.063-1.5c0.063-0.207,0.51-0.654,0.83-0.495
			c0.334,0.175,0.398-0.655,0.398-0.878c0-0.223,0.047-0.288,0.334-0.447c0.271-0.176,0.223-0.495,0.543-0.336
			c0.336,0.161,0.559,0.384,0.672,0.784c0.111,0.382,0.381,0.495,0.445,0.271c0.049-0.223,0.049-0.382,0.385-0.223
			c0.334,0.175,0.492,1.054,0.557,1.548c0.049,0.512-0.064,1.773-0.334,2.219c-0.271,0.447-0.607,1.389-0.447,1.662
			c0.176,0.286,0.494-0.05,0.83,0c0.334,0.063,0.223,1.116,0.176,1.675c-0.063,0.543-0.063,0.83-0.063,0.83s0.109-0.511,0.396-0.511
			c0.271,0,0.719,0.175,0.83,0.56C54.32,45.918,50.043,50.244,50.043,50.244z"/>
		<path fill-rule="evenodd" clip-rule="evenodd" fill="#FFFFFF" d="M35.693,65.492c-6.16,1.884-6.319,2.938-6.654,3.049
			c-0.336,0.111-1.548,1.006-2.107,1.118c-0.544,0.111-1.548,1.885-2.107,1.549c0,0-1.166,0.654-1.597,1.66
			c-0.447,0.99-0.893,1.053-1.452,1.389c-0.543,0.335-1.262,0.99-1.262,0.99l0.208-0.111c0,0,0.448-0.767-0.318-1.104
			c-0.782-0.334-1.341-0.558-1.341-0.558s-0.543-0.335-1.214-0.447c-0.542-0.08-0.43-0.543-0.781-0.462
			c0.446-0.225,1.339-0.527,2.888-1.852c0,0-0.399-0.402,0-0.736c0.383-0.318,0.941-0.766,1.213-0.83
			c0.287-0.048,0.717-0.158,1.229-0.158c0.495,0,6-3.481,7.198-4.168c0.383-0.208,5.425-2.49,6.095-2.49s1.883,0.063,2.488-0.271
			c0.607-0.335,2.492-1.549,2.492-1.726c0-0.159-0.049-0.83,0.063-1.054c0.113-0.223,1.166-0.767,1.326-0.718
			c0.176,0.064,1.164,0.448,1.164,0.448s1.771-1.007,2.107-1.438c0.334-0.446,1.66-2.33,1.723-2.73
			c0.049-0.382,0.113-1.931,0.385-2.202c0.27-0.288,1.213-0.512,1.389,0.111c0,0-0.176,0.719-0.176,0.878
			c0,0,0.877-2.651,1.389-3.544c0.605-1.054,2.09-2.843,3.941-4.263c0.496-0.399,2.107-3.274,2.107-5.046
			c0-1.787,0.432-6.05,0.381-6.769c0,0-0.893-1.293-0.111-1.771c0,0,0.338-0.831,0.271-0.831c-0.047,0,0.082-2.331-0.271-4.214
			c-0.334-1.772-1.053-3.544-0.893-4.167l1.23-0.431c0,0,0.988,2.714,1.436,5.652c0.445,2.938,0.287,6.529,0.287,6.928
			c0,0.719,0.096,10.411-4.836,12.693c-0.719,0.335-2.203,2.89-2.604,3.832c-0.383,0.942-2.824,4.312-3.988,5.317
			c0,0-0.607,0.159-0.941,0.558c0,0,0.717-0.558,0.941-0.558c0.223,0-0.447,0.494-0.447,0.829c0,0,1.387-1.835,1.787-2.267
			c0.383-0.446,2.203-2.891,2.426-3.386c0.223-0.494,1.502-2.937,1.771-3.16c0.287-0.224,1.277-1.166,1.9-1.39
			c0.605-0.224,0.988-0.719,1.148-0.878c0.176-0.175,0.848-0.112,0.848-0.112s-2.555,2.875-3.051,3.434
			c-0.51,0.559-1.229,2.267-1.674,3.049c-0.432,0.768-1.598,3.098-2.268,3.769c-0.67,0.67-1.725,1.214-2.043,1.389
			c0,0,0.383,0.271,0.096,0.447c-0.271,0.159-0.877,0.384-1.324,0.542c0,0-3.814,3.849-5.811,4.169
			C39.621,63.56,36.426,65.268,35.693,65.492"/>
		<path fill="none" stroke="#231F20" stroke-width="0.22" stroke-miterlimit="2.613" d="M35.693,65.492
			c-6.16,1.884-6.319,2.938-6.654,3.049c-0.336,0.111-1.548,1.006-2.107,1.118c-0.544,0.111-1.548,1.885-2.107,1.549
			c0,0-1.166,0.654-1.597,1.66c-0.447,0.99-0.893,1.053-1.452,1.389c-0.543,0.335-1.262,0.99-1.262,0.99l0.208-0.111
			c0,0,0.448-0.767-0.318-1.104c-0.782-0.334-1.341-0.558-1.341-0.558s-0.543-0.335-1.214-0.447c-0.542-0.08-0.43-0.543-0.781-0.462
			c0.446-0.225,1.339-0.527,2.888-1.852c0,0-0.399-0.402,0-0.736c0.383-0.318,0.941-0.766,1.213-0.83
			c0.287-0.048,0.717-0.158,1.229-0.158c0.495,0,6-3.481,7.198-4.168c0.383-0.208,5.425-2.49,6.095-2.49s1.883,0.063,2.488-0.271
			c0.607-0.335,2.492-1.549,2.492-1.726c0-0.159-0.049-0.83,0.063-1.054c0.113-0.223,1.166-0.767,1.326-0.718
			c0.176,0.064,1.164,0.448,1.164,0.448s1.771-1.007,2.107-1.438c0.334-0.446,1.66-2.33,1.723-2.73
			c0.049-0.382,0.113-1.931,0.385-2.202c0.27-0.288,1.213-0.512,1.389,0.111c0,0-0.176,0.719-0.176,0.878
			c0,0,0.877-2.651,1.389-3.544c0.605-1.054,2.09-2.843,3.941-4.263c0.496-0.399,2.107-3.274,2.107-5.046
			c0-1.787,0.432-6.05,0.381-6.769c0,0-0.893-1.293-0.111-1.771c0,0,0.338-0.831,0.271-0.831c-0.047,0,0.082-2.331-0.271-4.214
			c-0.334-1.772-1.053-3.544-0.893-4.167l1.23-0.431c0,0,0.988,2.714,1.436,5.652c0.445,2.938,0.287,6.529,0.287,6.928
			c0,0.719,0.096,10.411-4.836,12.693c-0.719,0.335-2.203,2.89-2.604,3.832c-0.383,0.942-2.824,4.312-3.988,5.317
			c0,0-0.607,0.159-0.941,0.558c0,0,0.717-0.558,0.941-0.558c0.223,0-0.447,0.494-0.447,0.829c0,0,1.387-1.835,1.787-2.267
			c0.383-0.446,2.203-2.891,2.426-3.386c0.223-0.494,1.502-2.937,1.771-3.16c0.287-0.224,1.277-1.166,1.9-1.39
			c0.605-0.224,0.988-0.719,1.148-0.878c0.176-0.175,0.848-0.112,0.848-0.112s-2.555,2.875-3.051,3.434
			c-0.51,0.559-1.229,2.267-1.674,3.049c-0.432,0.768-1.598,3.098-2.268,3.769c-0.67,0.67-1.725,1.214-2.043,1.389
			c0,0,0.383,0.271,0.096,0.447c-0.271,0.159-0.877,0.384-1.324,0.542c0,0-3.814,3.849-5.811,4.169
			C39.621,63.56,36.426,65.268,35.693,65.492z"/>
		<path fill-rule="evenodd" clip-rule="evenodd" fill="#FFFFFF" d="M20.723,75.136c0,0,0.448-0.767-0.318-1.104
			c-0.782-0.334-1.341-0.558-1.341-0.558s-0.543-0.335-1.214-0.447c-0.67-0.11-0.335-0.766-1.116-0.318
			c-0.767,0.431-0.32,0.83,0.112,0.941c0.446,0.111,0.446,0.495,0.446,0.495s0.335,0.048,0.447,0.495
			c0.111,0.446,0.447,0.495,0.99,0.383c0.559-0.112,0.782,0.112,1.118,0.288C20.198,75.487,20.723,75.136,20.723,75.136"/>
		<path fill="none" stroke="#231F20" stroke-width="0.22" stroke-miterlimit="2.613" d="M20.723,75.136c0,0,0.448-0.767-0.318-1.104
			c-0.782-0.334-1.341-0.558-1.341-0.558s-0.543-0.335-1.214-0.447c-0.67-0.11-0.335-0.766-1.116-0.318
			c-0.767,0.431-0.32,0.83,0.112,0.941c0.446,0.111,0.446,0.495,0.446,0.495s0.335,0.048,0.447,0.495
			c0.111,0.446,0.447,0.495,0.99,0.383c0.559-0.112,0.782,0.112,1.118,0.288C20.198,75.487,20.723,75.136,20.723,75.136z"/>
		<path fill="none" stroke="#231F20" stroke-width="0.22" stroke-miterlimit="2.613" d="M22.448,71.432l-3.049,2.043 M21.712,70.122
			c-0.255,0.67-0.478,0.416-1.085,0.606c-0.175,0.063-0.479,0.144-0.67,0.191 M19.958,70.92c-0.287,0.097-0.559,0.512-0.846,0.783
			c-0.432,0.383-0.926,0.702-1.405,1.021 M46.242,59.265c-0.365,0.016-0.717-0.143-1.1-0.031c-0.463,0.128-0.861,0.335-1.277,0.527
			 M41.264,60.974c-0.271-0.112-0.447-0.352-0.559-0.606 M42.541,59.872c0.096-0.208,0.127-0.431,0.303-0.639
			c0.064-0.048,0.049-0.207,0.018-0.304c-0.018-0.016-0.098,0-0.16,0 M47.697,52.607c-0.08-0.032-0.113,0.048-0.176,0.048
			c0.014,0.096-0.049,0.225,0.063,0.271c0.4,0.192,0.83-0.096,1.213,0.127v-0.111 M56.555,33.927
			c0.127,0.112,0.287,0.144,0.445,0.144c0.033,0,0.08-0.08,0.111-0.08c0.287,0.016,0.527-0.08,0.783-0.239 M20.085,73.729
			c0.319-0.174,0.638-0.302,0.941-0.51c0.208-0.16,0.352-0.367,0.623-0.448c0.096-0.016,0.08-0.174,0.16-0.19
			c0.319-0.112,0.591-0.256,0.878-0.431c0.304-0.177,0.543-0.447,0.814-0.688c0.942-0.813,1.708-1.677,2.761-2.363
			c0.926-0.59,1.836-1.085,2.698-1.692 M25.017,71.064c0.064-0.064,0.047-0.16,0.08-0.208c0.431-0.494,1.197-0.622,1.42-1.293
			c1.405-0.799,2.602-1.98,4.102-2.603 M21.426,73.667c0.895-0.416,1.676-1.055,2.331-1.821 M40.369,62.363
			c0.367-0.352,0.734-0.719,1.182-0.91c0.512-0.224,1.07-0.336,1.531-0.639 M41.311,62.25c0.256-0.238,0.543-0.446,0.846-0.59
			c0.24-0.111,0.512-0.191,0.768-0.288c0.398-0.175,0.654-0.511,1.037-0.766c0.287-0.176,0.432-0.511,0.623-0.799 M41.758,62.635
			c0.191-0.113,0.271-0.385,0.463-0.464c0.367-0.177,0.719-0.351,1.07-0.56c0.51-0.303,0.91-0.733,1.324-1.165
			c0.24-0.239,0.463-0.526,0.688-0.799 M51.238,49.781c0.193-0.75,0.352-0.927,0.848-1.373c0.926-0.846,1.979-1.342,2.951-2.14
			c0.16-0.127,0.271-0.303,0.352-0.479"/>
		<path fill-rule="evenodd" clip-rule="evenodd" fill="#FFFFFF" d="M43.115,75.247c-0.383-0.097-0.336-0.542-0.336-0.542
			s-1.213-0.448-0.43-0.784c0.766-0.335,1.324-0.558,1.324-0.558s0.559-0.336,1.213-0.446c0.67-0.113,0.336-0.99,1.117-0.544
			c-0.447-0.224-4.102-2.107-5.65-3.448c-1.564-1.326-7.979-5.317-10.085-5.987c-2.106-0.655-5.985-2.315-6.32-2.986
			c-0.335-0.671-0.782-1.438-1.995-2.331c-1.23-0.877-1.772,0.336-1.661,0.783c0.111,0.431,1.548,1.214,1.548,1.214
			c-5.539-1.997-8.092-6.978-8.092-6.978c0.335-1.006-0.446-3.449-0.446-3.449c-0.447,0.111-0.67,0.782-0.67,0.782v-0.671
			c0-0.335-2.315-2.442-2.315-2.442c-1.883,0.224,0,1.995,0,1.995c1.213,3.002,2.219,2.556,2.219,2.556
			c-0.335,0-0.335,1.006-0.335,1.006c0.542,1.771,1.661,2.762,1.661,2.762c1.324,0,1.548,1.342,1.212,1.772
			c-0.334,0.447-0.877,0.67-0.877,0.67c2.984,3.544,10.406,6.883,13.742,7.872c3.319,1.006,5.983,3.225,6.32,3.32
			c0.318,0.112,0.877,0.224,1.436,0.335s0.99,1.118,1.66,1.566c0.67,0.43,2.107,1.436,2.553,2.426
			c0.447,1.007,0.99,0.781,1.549,1.117C42.014,74.592,43.115,75.247,43.115,75.247"/>
		<path fill="none" stroke="#231F20" stroke-width="0.22" stroke-miterlimit="2.613" d="M43.115,75.247
			c-0.383-0.097-0.336-0.542-0.336-0.542s-1.213-0.448-0.43-0.784c0.766-0.335,1.324-0.558,1.324-0.558s0.559-0.336,1.213-0.446
			c0.67-0.113,0.336-0.99,1.117-0.544c-0.447-0.224-4.102-2.107-5.65-3.448c-1.564-1.326-7.979-5.317-10.085-5.987
			c-2.106-0.655-5.985-2.315-6.32-2.986c-0.335-0.671-0.782-1.438-1.995-2.331c-1.23-0.877-1.772,0.336-1.661,0.783
			c0.111,0.431,1.548,1.214,1.548,1.214c-5.539-1.997-8.092-6.978-8.092-6.978c0.335-1.006-0.446-3.449-0.446-3.449
			c-0.447,0.111-0.67,0.782-0.67,0.782v-0.671c0-0.335-2.315-2.442-2.315-2.442c-1.883,0.224,0,1.995,0,1.995
			c1.213,3.002,2.219,2.556,2.219,2.556c-0.335,0-0.335,1.006-0.335,1.006c0.542,1.771,1.661,2.762,1.661,2.762
			c1.324,0,1.548,1.342,1.212,1.772c-0.334,0.447-0.877,0.67-0.877,0.67c2.984,3.544,10.406,6.883,13.742,7.872
			c3.319,1.006,5.983,3.225,6.32,3.32c0.318,0.112,0.877,0.224,1.436,0.335s0.99,1.118,1.66,1.566
			c0.67,0.43,2.107,1.436,2.553,2.426c0.447,1.007,0.99,0.781,1.549,1.117C42.014,74.592,43.115,75.247,43.115,75.247z"/>
		<path fill-rule="evenodd" clip-rule="evenodd" fill="#FFFFFF" d="M42.781,74.705c0,0-1.215-0.448-0.432-0.784
			c0.766-0.335,1.324-0.558,1.324-0.558s0.559-0.336,1.213-0.446c0.67-0.113,0.336-0.991,1.117-0.544
			c0.766,0.431,0.447,0.878,0,0.99c-0.447,0.111-0.557,0.669-0.557,0.669s-0.561-0.222-0.672,0.225
			c-0.113,0.448-0.225,0.767-0.766,0.654c-0.559-0.112-0.352,0.495-0.895,0.336C42.732,75.135,42.781,74.705,42.781,74.705"/>
		<path fill="none" stroke="#231F20" stroke-width="0.22" stroke-miterlimit="2.613" d="M42.781,74.705c0,0-1.215-0.448-0.432-0.784
			c0.766-0.335,1.324-0.558,1.324-0.558s0.559-0.336,1.213-0.446c0.67-0.113,0.336-0.991,1.117-0.544
			c0.766,0.431,0.447,0.878,0,0.99c-0.447,0.111-0.557,0.669-0.557,0.669s-0.561-0.222-0.672,0.225
			c-0.113,0.448-0.225,0.767-0.766,0.654c-0.559-0.112-0.352,0.495-0.895,0.336C42.732,75.135,42.781,74.705,42.781,74.705z"/>
		<path fill="none" stroke="#231F20" stroke-width="0.22" stroke-miterlimit="2.613" d="M21.952,57.621c0,0,0.336,1.117,0,1.117
			c-0.334,0-0.781,0.208-1.229,0.096 M10.317,48.854c0,0,0.655-0.095,1.102,0.336c0.447,0.447,0.67,1.342,1.117,1.564
			 M13.637,52.305l-0.224,0.654 M13.414,52.959c0,0,0.335,0.894,1.005,1.564 M22.607,62.172c-1.66-0.895-3.878-2.221-3.878-2.221
			c-1.66-1.005-2.394-1.469-3.591-2.825 M42.668,71.926l1.787,1.102 M34.305,67.87c0.83,0.655,1.852,0.847,2.746,1.374
			c0.383,0.223,0.574,0.686,0.941,0.91c1.102,0.718,2.441,1.133,2.936,2.458c0.24,0.671,1.086,0.288,1.678,0.718
			c0.158,0.112,0.271,0.256,0.461,0.32 M22.112,59.011c0.271,0.079,0.32,0.478,0.669,0.446"/>
		<path fill-rule="evenodd" clip-rule="evenodd" fill="#FFFFFF" d="M10.317,46.859c-1.883,0.224,0,1.995,0,1.995
			c1.213,3.003,2.219,2.556,2.219,2.556c-0.335,0-0.335,1.006-0.335,1.006c0.543,1.771,1.66,2.761,1.66,2.761
			c1.325,0,1.547,1.343,1.212,1.773c-0.334,0.447-0.877,0.67-0.877,0.67s-0.335,0-0.782-0.223c-0.447-0.225-1.852-2.555-2.219-3.657
			c-0.112-0.334-0.112-0.894-0.559-0.559l-0.542-0.335l-0.111-0.655c0,0,0.878,0.337,0.224-0.781
			c-0.67-1.102-0.559-1.438-0.894-1.996c-0.335-0.56-1.325-2.331-1.325-2.762c0,0,0.766,0.431,0.878-0.335
			c0,0-0.112-0.896,0.335-1.118L10.317,46.859z"/>
		<path fill="none" stroke="#231F20" stroke-width="0.22" stroke-miterlimit="2.613" d="M10.317,46.859
			c-1.883,0.224,0,1.995,0,1.995c1.213,3.003,2.219,2.556,2.219,2.556c-0.335,0-0.335,1.006-0.335,1.006
			c0.543,1.771,1.66,2.761,1.66,2.761c1.325,0,1.547,1.343,1.212,1.773c-0.334,0.447-0.877,0.67-0.877,0.67s-0.335,0-0.782-0.223
			c-0.447-0.225-1.852-2.555-2.219-3.657c-0.112-0.334-0.112-0.894-0.559-0.559l-0.542-0.335l-0.111-0.655
			c0,0,0.878,0.337,0.224-0.781c-0.67-1.102-0.559-1.438-0.894-1.996c-0.335-0.56-1.325-2.331-1.325-2.762
			c0,0,0.766,0.431,0.878-0.335c0,0-0.112-0.896,0.335-1.118L10.317,46.859z"/>
		<path fill="none" stroke="#231F20" stroke-width="0.22" stroke-miterlimit="2.613" d="M5.545,33.336
			c-0.111,0.336,0.446,0.671,0.446,0.671s0.112-0.335-0.446,0.335c-0.559,0.654,0.446,4.438,0.446,4.438s0.447,0.32,0.655,0.766
			c0.223,0.448-0.096,0.895-0.096,0.895c0,0.543,1.436,2.873,1.436,2.873c-0.111,0.671-0.333,1.55-0.333,1.55
			s-1.549-3.098-1.884-3.99c0,0-0.558-0.209-0.782-0.545c-0.224-0.334,0.111-1.228,0.111-1.228s-1.102-3.88-0.99-4.646
			c0,0-1.116-0.336-1.116-0.895c0,0,0.67-0.335,0.781-0.67c0,0,0.559,0.559,0.782-0.542c0.208-1.118,0.655-3.991,1.213-5.11
			 M5.769,27.237l-0.495-0.462l0.111-0.606l0.432,0.126 M5.817,26.295c0.224-0.43,0.51-1.93,1.277-3.161 M7.094,23.134l-0.336-0.431
			 M6.758,22.704c0,0,0.447-0.335,0.782-0.895c0,0,2.219-3.544,4.437-6.21c2.218-2.666,1.102-1.437,1.102-1.437
			s-4.645,7.871-4.869,8.75c0,0,0.224,0.67-0.334,1.005c0,0-1.006,2.332-1.229,2.778 M6.646,26.695l0.782,0.239l-0.224,0.783
			 M7.205,27.717c0,0-0.99,0.304-1.325,1.405c-0.335,1.117-0.335,4.214-0.335,4.214"/>
		<path fill-rule="evenodd" clip-rule="evenodd" fill="#FFFFFF" d="M10.972,53.294c0,0-1.213-0.335-0.989-1.103
			c0,0-1.118-1.34-1.66-3.001c-0.559-1.66-1.772-4.103-3.001-6.322c-1.213-2.203-1.437-4.198-2.33-4.646
			c0,0-1.102-2.667-1.661-3.113c-0.558-0.431-1.101-1.102-1.101,1.453c0,2.538-0.112,7.423,4.214,12.084
			c4.309,4.647,4.101,4.104,4.101,4.104S9.041,53.518,10.972,53.294"/>
		<path fill="none" stroke="#231F20" stroke-width="0.22" stroke-miterlimit="2.613" d="M10.972,53.294c0,0-1.213-0.335-0.989-1.103
			c0,0-1.118-1.34-1.66-3.001c-0.559-1.66-1.772-4.103-3.001-6.322c-1.213-2.203-1.437-4.198-2.33-4.646
			c0,0-1.102-2.667-1.661-3.113c-0.558-0.431-1.101-1.102-1.101,1.453c0,2.538-0.112,7.423,4.214,12.084
			c4.309,4.647,4.101,4.104,4.101,4.104S9.041,53.518,10.972,53.294z"/>
		<path fill-rule="evenodd" clip-rule="evenodd" fill="#FFFFFF" d="M13.19,44.368c0,0,1.389-1.884,1.549-2.602
			c0.175-0.719,0.622-2.985,0.558-4.262c-0.048-1.278-1.771,0.655-2.154,1.053L13.19,44.368z"/>
		<path fill="none" stroke="#231F20" stroke-width="0.22" stroke-miterlimit="2.613" d="M13.19,44.368c0,0,1.389-1.884,1.549-2.602
			c0.175-0.719,0.622-2.985,0.558-4.262c-0.048-1.278-1.771,0.655-2.154,1.053L13.19,44.368z"/>
		<path fill-rule="evenodd" clip-rule="evenodd" fill="#FFFFFF" d="M11.083,16.717c0,0,0.67-2.284,3.99-5.987
			c3.336-3.72,6.879-6.817,8.379-7.217c1.485-0.383,2.937-0.718,3.544-0.655c0.605,0.049,1.324,1.15,0.048,1.773
			c-1.277,0.606-10.583,6.258-11.3,6.706c-0.718,0.447-3.99,4.598-3.99,4.598S11.371,16.493,11.083,16.717"/>
		<path fill="none" stroke="#231F20" stroke-width="0.22" stroke-miterlimit="2.613" d="M11.083,16.717c0,0,0.67-2.284,3.99-5.987
			c3.336-3.72,6.879-6.817,8.379-7.217c1.485-0.383,2.937-0.718,3.544-0.655c0.605,0.049,1.324,1.15,0.048,1.773
			c-1.277,0.606-10.583,6.258-11.3,6.706c-0.718,0.447-3.99,4.598-3.99,4.598S11.371,16.493,11.083,16.717z"/>
		<path fill-rule="evenodd" clip-rule="evenodd" fill="#FFFFFF" d="M7.987,46.652c0,0,0.496,0.319,0.719,0
			c0.223-0.335,0.159-1.117,0.495-1.453c0.334-0.335,0.495-1.054,1.053-1.598c0.558-0.558,2.602-3.16,3.271-4.66
			c0.67-1.502,0.83-2.411,1.102-4.056c0.287-1.66-2.107,0.671-2.713,1.118c-0.432,0.335-2.937,3.497-3.32,4.934
			c-0.383,1.436-0.941,3.496-0.941,4.374C7.652,46.205,7.588,46.429,7.987,46.652"/>
		<path fill="none" stroke="#231F20" stroke-width="0.22" stroke-miterlimit="2.613" d="M7.987,46.652c0,0,0.496,0.319,0.719,0
			c0.223-0.335,0.159-1.117,0.495-1.453c0.334-0.335,0.495-1.054,1.053-1.598c0.558-0.558,2.602-3.16,3.271-4.66
			c0.67-1.502,0.83-2.411,1.102-4.056c0.287-1.66-2.107,0.671-2.713,1.118c-0.432,0.335-2.937,3.497-3.32,4.934
			c-0.383,1.436-0.941,3.496-0.941,4.374C7.652,46.205,7.588,46.429,7.987,46.652z"/>
		<path fill-rule="evenodd" clip-rule="evenodd" fill="#FFFFFF" d="M12.36,48.967c0,0-0.335-0.496-0.718-0.767
			c-0.383-0.287-1.165-1.164-1.325-1.341c0,0,0.319-2.38,0.16-5.141c-0.16-2.777,0.942-5.221,1.213-6.098
			c0.287-0.895,0.734-1.837,0.734-1.837s0.654-1.054,1.053,0.16c0.384,1.229,0.607,5.046,0.544,6.21
			c-0.049,1.167-0.544,5.445-0.831,6.274C12.919,47.259,12.919,48.646,12.36,48.967"/>
		<path fill="none" stroke="#231F20" stroke-width="0.22" stroke-miterlimit="2.613" d="M12.36,48.967c0,0-0.335-0.496-0.718-0.767
			c-0.383-0.287-1.165-1.164-1.325-1.341c0,0,0.319-2.38,0.16-5.141c-0.16-2.777,0.942-5.221,1.213-6.098
			c0.287-0.895,0.734-1.837,0.734-1.837s0.654-1.054,1.053,0.16c0.384,1.229,0.607,5.046,0.544,6.21
			c-0.049,1.167-0.544,5.445-0.831,6.274C12.919,47.259,12.919,48.646,12.36,48.967z"/>
		<path fill-rule="evenodd" clip-rule="evenodd" fill="#FFFFFF" d="M11.482,17.1c0,0,0.718-1.725,2.714-3.72
			c0.543-0.542,3.336-3.784,4.708-4.757c1.932-1.389,6.592-3.944,8.029-4.168c0.718-0.111,3.16,0.112,1.563,1.278
			c-1.611,1.166-9.544,6.881-12.368,7.871L11.482,17.1z"/>
		<path fill="none" stroke="#231F20" stroke-width="0.22" stroke-miterlimit="2.613" d="M11.482,17.1c0,0,0.718-1.725,2.714-3.72
			c0.543-0.542,3.336-3.784,4.708-4.757c1.932-1.389,6.592-3.944,8.029-4.168c0.718-0.111,3.16,0.112,1.563,1.278
			c-1.611,1.166-9.544,6.881-12.368,7.871L11.482,17.1z"/>
		<path fill-rule="evenodd" clip-rule="evenodd" fill="#FFFFFF" d="M8.322,23.311c0,0,0.223,0.112,0.655-0.56
			c0.446-0.67,1.611-2.986,2.106-4.375c0.495-1.39,2.314-5.7,5.65-8.382c0.559-0.431,1.229-0.942,1.117,1.166
			c-0.111,2.106-1.165,3.336-1.548,3.719c-0.399,0.383-1.724,3.098-2.17,3.992c-0.448,0.894-4.039,5.316-6.257,5.205
			C7.875,24.077,8.099,23.806,8.322,23.311"/>
		<path fill="none" stroke="#231F20" stroke-width="0.22" stroke-miterlimit="2.613" d="M8.322,23.311c0,0,0.223,0.112,0.655-0.56
			c0.446-0.67,1.611-2.986,2.106-4.375c0.495-1.39,2.314-5.7,5.65-8.382c0.559-0.431,1.229-0.942,1.117,1.166
			c-0.111,2.106-1.165,3.336-1.548,3.719c-0.399,0.383-1.724,3.098-2.17,3.992c-0.448,0.894-4.039,5.316-6.257,5.205
			C7.875,24.077,8.099,23.806,8.322,23.311z"/>
		<path fill-rule="evenodd" clip-rule="evenodd" fill="#FFFFFF" d="M6.758,22.704c0,0-0.495-0.335-0.32-0.831
			c0.16-0.511,1.053-4.278,2.155-6.769c1.102-2.491,3.894-7.265,5.825-8.702c0.431-0.335,1.66-1.341,1.213,0.718
			c-0.447,2.044-1.611,4.663-3.16,6.818c-1.548,2.155-3.527,4.629-3.831,5.093c-0.271,0.447-1.372,2.395-1.325,3.113
			C7.316,22.145,7.094,22.528,6.758,22.704"/>
		<path fill="none" stroke="#231F20" stroke-width="0.22" stroke-miterlimit="2.613" d="M6.758,22.704c0,0-0.495-0.335-0.32-0.831
			c0.16-0.511,1.053-4.278,2.155-6.769c1.102-2.491,3.894-7.265,5.825-8.702c0.431-0.335,1.66-1.341,1.213,0.718
			c-0.447,2.044-1.611,4.663-3.16,6.818c-1.548,2.155-3.527,4.629-3.831,5.093c-0.271,0.447-1.372,2.395-1.325,3.113
			C7.316,22.145,7.094,22.528,6.758,22.704z"/>
		<path fill-rule="evenodd" clip-rule="evenodd" fill="#FFFFFF" d="M5.705,33.736c0,0,0.111,0.208,0.287,0.271
			c0.16,0.048,1.932-1.724,3.209-3.879c1.181-1.996,1.883-3.321,2.601-4.998c0.734-1.661,1.883-3.433,1.947-6.481
			c0.017-0.991-0.51-1.023-1.005-0.608c-0.383,0.336-2.985,2.779-4.261,5.829c-1.277,3.033-2.267,7.807-2.379,8.414
			C5.992,32.89,6.041,33.178,5.705,33.736"/>
		<path fill="none" stroke="#231F20" stroke-width="0.22" stroke-miterlimit="2.613" d="M5.705,33.736c0,0,0.111,0.208,0.287,0.271
			c0.16,0.048,1.932-1.724,3.209-3.879c1.181-1.996,1.883-3.321,2.601-4.998c0.734-1.661,1.883-3.433,1.947-6.481
			c0.017-0.991-0.51-1.023-1.005-0.608c-0.383,0.336-2.985,2.779-4.261,5.829c-1.277,3.033-2.267,7.807-2.379,8.414
			C5.992,32.89,6.041,33.178,5.705,33.736z"/>
		<path fill-rule="evenodd" clip-rule="evenodd" fill="#FFFFFF" d="M3.773,32.89c0,0-0.447,0.67-0.781,0.67
			c0,0-1.277-1.324-1.166-5.204c0.112-3.88,1.118-11.704,5.827-15.248c0,0,0,4.486-0.719,6.865c-1.5,4.933-2.554,11.319-3.16,12.98
			V32.89z"/>
		<path fill="none" stroke="#231F20" stroke-width="0.22" stroke-miterlimit="2.613" d="M3.773,32.89c0,0-0.447,0.67-0.782,0.67
			c0,0-1.277-1.325-1.166-5.204c0.112-3.88,1.118-11.703,5.826-15.248c0,0,0,4.486-0.719,6.865c-1.5,4.933-2.554,11.319-3.16,12.98
			 M0.885,38.781c0.224,0.32,1.005,2.538,1.452,3.656c0.431,1.102,2.761,5.429,3.99,6.529c1.213,1.118,2.107,2.443,2.218,2.778
			c0.096,0.335,0.878,1.102,1.549,1.102 M8.322,46.701c0,0-0.176-3.211,2.219-6.482 M12.584,36.386c0,0-0.607,4.279-0.67,5.604
			c-0.048,1.324-0.383,5.492-0.543,5.876 M14.579,38.605c0,0-0.383,1.165-0.558,1.548 M3.327,33.336c0,0-0.447-4.645,0.063-7.695
			c0.606-3.719,2.043-7.329,2.043-7.329 M12.472,21.426c0,0-4.66,9.372-6.432,11.639 M6.87,22.288c0,0,1.564-4.917,2.283-6.514
			c0.782-1.756,4.038-6.722,4.038-6.722 M15.568,10.777c0,0,6.72-6.099,9.034-7.2 M25.719,6.339
			c-0.335,0.176-2.554,1.277-7.725,5.125 M16.622,11.495c0,0-2.091,3.226-4.118,6.689"/>
		<path fill-rule="evenodd" clip-rule="evenodd" fill="#FFFFFF" d="M36.795,5.284c0,0-1.709,1.996,3.111,1.565
			c0,0-1.004,2.491,3.434,2.044c0,0-0.496,1.613,2.375,0.495c2.891-1.101,3.832,2.061,3.832,2.061s-1.883-4.934-2.219-5.333
			c-0.334-0.383-0.717-1.261-1.547-1.053c-0.83,0.223-0.287,0.447-0.113,0.735c0.16,0.271,0.16,0.542-0.174,0.494
			c-0.32-0.064-0.543-0.207-0.832-0.83c-0.27-0.606-1.26-2.219-3.254-2.395c-1.996-0.159-1.23-0.111-1.055,0.335
			c0,0-0.846-0.654-1.5-0.718c-0.672-0.047-1.66-0.16-1.229,0.383c0,0-2.203-0.319-2.266,0.847
			C35.309,5.062,36.795,5.284,36.795,5.284"/>
		<path fill="none" stroke="#231F20" stroke-width="0.22" stroke-miterlimit="2.613" d="M36.795,5.284c0,0-1.709,1.996,3.111,1.565
			c0,0-1.004,2.491,3.434,2.044c0,0-0.496,1.613,2.375,0.495c2.891-1.101,3.832,2.061,3.832,2.061s-1.883-4.934-2.219-5.333
			c-0.334-0.383-0.717-1.261-1.547-1.053c-0.83,0.223-0.287,0.447-0.113,0.735c0.16,0.271,0.16,0.542-0.174,0.494
			c-0.32-0.064-0.543-0.207-0.832-0.83c-0.27-0.606-1.26-2.219-3.254-2.395c-1.996-0.159-1.23-0.111-1.055,0.335
			c0,0-0.846-0.654-1.5-0.718c-0.672-0.047-1.66-0.16-1.229,0.383c0,0-2.203-0.319-2.266,0.847
			C35.309,5.062,36.795,5.284,36.795,5.284z"/>
		<path fill-rule="evenodd" clip-rule="evenodd" fill="#FFFFFF" d="M46.451,7.792c0,0-1.055-1.006-1.564-0.447
			c-0.494,0.56,0.064,1.389,0.336,1.437c0,0-1.102,0.606-0.607,1.725c0.176,0.383,0.447,0.606,0.67,0.83
			c0.209,0.224,0.605,0.272,0.768,0.447c0,0,0.063,0.495-0.113,0.654c-0.158,0.176-1.164,0.719-0.445,1.389
			c0.734,0.67,0.396,0.559,1.117,0.606c0.717,0.064,0.941-0.047,0.988,0.335c0.064,0.383,0.111,1.006-0.111,1.166
			c-0.209,0.16-0.543,0.607,0,0.831c0.559,0.223,0.67,0.111,0.67,0.382c0,0.288,0.447,0.288,0.943,0.288
			c0.494,0,0.893,0.16,1.387,0.447c0.494,0.271,3.656,1.214,3.656,1.214s-2.602-9.373-2.984-9.868
			c-0.4-0.494-1.725-1.835-2.33-2.218c-0.607-0.383-1.773-0.831-1.947,0.271C46.723,8.398,46.451,7.792,46.451,7.792"/>
		<path fill="none" stroke="#231F20" stroke-width="0.22" stroke-miterlimit="2.613" d="M46.451,7.792c0,0-1.055-1.006-1.564-0.447
			c-0.494,0.56,0.064,1.389,0.336,1.437c0,0-1.102,0.606-0.607,1.725c0.176,0.383,0.447,0.606,0.67,0.83
			c0.209,0.224,0.605,0.272,0.768,0.447c0,0,0.063,0.495-0.113,0.654c-0.158,0.176-1.164,0.719-0.445,1.389
			c0.734,0.67,0.396,0.559,1.117,0.606c0.717,0.064,0.941-0.047,0.988,0.335c0.064,0.383,0.111,1.006-0.111,1.166
			c-0.209,0.16-0.543,0.607,0,0.831c0.559,0.223,0.67,0.111,0.67,0.382c0,0.288,0.447,0.288,0.943,0.288
			c0.494,0,0.893,0.16,1.387,0.447c0.494,0.271,3.656,1.214,3.656,1.214s-2.602-9.373-2.984-9.868
			c-0.4-0.494-1.725-1.835-2.33-2.218c-0.607-0.383-1.773-0.831-1.947,0.271C46.723,8.398,46.451,7.792,46.451,7.792z"/>
		<path fill-rule="evenodd" clip-rule="evenodd" fill="#FFFFFF" d="M47.887,10.441c0,0-1.004-1.437-0.334-2.155
			s2.33-0.383,3.096,0.112c0,0,1.34-1.772,2.617,2.539c0,0,0.32-0.271,0.383-0.606c0.049-0.336,0.99-0.878,1.324,0.894
			c0.336,1.772,0.113,1.054,0.113,1.054s0.67,0.271,0.494,2.826c-0.16,2.554,0.781,7.312,0.781,7.312l-0.781,0.176
			c0,0-1.549-2.555-1.883-2.778c-0.32-0.223-2.537-1.836-2.824-2.331c-0.273-0.495-0.83-0.718-1.166-1.054
			c-0.318-0.335-0.271-0.16-0.43-0.047c-0.176,0.112-0.943-0.335-1.166-0.671c-0.225-0.335-1.117-0.606-0.623-1.437
			c0.51-0.831,0.846-0.447,1.117-0.607c0,0-0.895-0.176-1.053-0.511c-0.16-0.319-0.67-0.831-0.783-1.102
			c-0.111-0.271-0.318-0.894,0.4-1.117C47.887,10.729,47.887,10.441,47.887,10.441"/>
		<path fill="none" stroke="#231F20" stroke-width="0.22" stroke-miterlimit="2.613" d="M47.887,10.441c0,0-1.004-1.437-0.334-2.155
			s2.33-0.383,3.096,0.112c0,0,1.34-1.772,2.617,2.539c0,0,0.32-0.271,0.383-0.606c0.049-0.336,0.99-0.878,1.324,0.894
			c0.336,1.772,0.113,1.054,0.113,1.054s0.67,0.271,0.494,2.826c-0.16,2.554,0.781,7.312,0.781,7.312l-0.781,0.176
			c0,0-1.549-2.555-1.883-2.778c-0.32-0.223-2.537-1.836-2.824-2.331c-0.273-0.495-0.83-0.718-1.166-1.054
			c-0.318-0.335-0.271-0.16-0.43-0.047c-0.176,0.112-0.943-0.335-1.166-0.671c-0.225-0.335-1.117-0.606-0.623-1.437
			c0.51-0.831,0.846-0.447,1.117-0.607c0,0-0.895-0.176-1.053-0.511c-0.16-0.319-0.67-0.831-0.783-1.102
			c-0.111-0.271-0.318-0.894,0.4-1.117C47.887,10.729,47.887,10.441,47.887,10.441z"/>
		<path fill-rule="evenodd" clip-rule="evenodd" fill="#FFFFFF" d="M55.98,22.751c0,0-0.449-1.437-0.783-1.613
			c-0.336-0.16-0.336,0-0.559,0.288c-0.207,0.271-0.158,0.606-0.383,0.831c-0.225,0.223-0.607,0.271-0.559-0.224
			c0.064-0.494,0.225-0.718,0.398-1.006c0.16-0.271,0.83-1.261,0.432-1.884c-0.383-0.606-0.766-0.99-0.99-0.99
			c-0.223,0-0.83,0.271-0.83,1.166c0,0,0.16-0.607,0-0.83c-0.176-0.224-1.117-0.783-1.5-1.054c-0.383-0.288-1.549-0.288-1.5,0.606
			c0.064,0.879,0.064,1.326,0.064,1.326s-1.438-0.335-0.064,2.938c0,0-1.326,0.511,0.223,1.772c1.549,1.277,2.506,2.107,2.777,2.554
			c0.273,0.448,1.389,2.667,1.549,3.273c0.176,0.606,0.605,2.219,1.947,3.544c0,0-0.336-0.607-0.176-0.767
			c0.176-0.175,0.496-0.83,0.559-1.054c0.047-0.224-0.063-1.612-0.605-1.23c0,0-0.064-1.771,0.109-2.154
			c0.162-0.383,0.162-2.283-1.117-1.996c0,0,0.336-1.502,0.672-1.884C55.98,23.966,56.027,23.151,55.98,22.751"/>
		<path fill="none" stroke="#231F20" stroke-width="0.22" stroke-miterlimit="2.613" d="M55.98,22.751c0,0-0.449-1.437-0.783-1.613
			c-0.336-0.16-0.336,0-0.559,0.288c-0.207,0.271-0.158,0.606-0.383,0.831c-0.225,0.223-0.607,0.271-0.559-0.224
			c0.064-0.494,0.225-0.718,0.398-1.006c0.16-0.271,0.83-1.261,0.432-1.884c-0.383-0.606-0.766-0.99-0.99-0.99
			c-0.223,0-0.83,0.271-0.83,1.166c0,0,0.16-0.607,0-0.83c-0.176-0.224-1.117-0.783-1.5-1.054c-0.383-0.288-1.549-0.288-1.5,0.606
			c0.064,0.879,0.064,1.326,0.064,1.326s-1.438-0.335-0.064,2.938c0,0-1.326,0.511,0.223,1.772c1.549,1.277,2.506,2.107,2.777,2.554
			c0.273,0.448,1.389,2.667,1.549,3.273c0.176,0.606,0.605,2.219,1.947,3.544c0,0-0.336-0.607-0.176-0.767
			c0.176-0.175,0.496-0.83,0.559-1.054c0.047-0.224-0.063-1.612-0.605-1.23c0,0-0.064-1.771,0.109-2.154
			c0.162-0.383,0.162-2.283-1.117-1.996c0,0,0.336-1.502,0.672-1.884C55.98,23.966,56.027,23.151,55.98,22.751z"/>
		<path fill-rule="evenodd" clip-rule="evenodd" fill="#FFFFFF" d="M58.471,32.682c0,0,1.387-0.559,1.275-1.277
			s-0.83-2.219-1.66-2.666c-0.83-0.447-0.176-1.277,0.223-0.989c0,0-0.559-0.735-0.941-0.943c-0.398-0.223-1.564-1.564-0.893-1.996
			c0.67-0.446,0.67-0.446,0.717-0.511c0.064-0.048-0.668-0.161-0.939-1.102c-0.271-0.942-0.832-1.326-0.16-1.229
			c0,0-1.611-1.102-1.342-1.708c0.287-0.607,0.223-0.67,0.719-0.607c0,0-1.771-0.511-1.324-1.772
			c0.445-1.277,0.717-1.277,0.717-1.277l0.064-0.176c0,0-0.336-1.596,0.16-1.708c0.494-0.112,0.176-0.176,0.176-0.176
			s0.111-0.559,0.494-0.447c0,0-0.063-0.879,0.605-0.271c0.672,0.606,1.006,1.389,1.006,1.389s2.156,0.495,2.379,3.496
			c0,0,1.215,0.272,1.102,3.05c0,0,0.32,0.575-0.113,1.708c-0.383,1.054-0.047,0.67,0.227,0.496c0.285-0.16,1.164-1.262,0.939,0.558
			c-0.223,1.836-0.447,2.283-0.717,2.778c0,0,0.336,0.048,0.383,0.384c0.063,0.336-0.113,0.223-0.383,0.894
			c-0.273,0.655-0.48,1.054-0.496,1.661c-0.064,2.22-0.83,2.603-0.83,2.603l-1.387,0.606V32.682z"/>
		<path fill="none" stroke="#231F20" stroke-width="0.22" stroke-miterlimit="2.613" d="M58.471,32.682c0,0,1.387-0.559,1.275-1.277
			s-0.83-2.219-1.66-2.666c-0.83-0.447-0.176-1.277,0.223-0.989c0,0-0.559-0.735-0.941-0.943c-0.398-0.223-1.564-1.564-0.893-1.996
			c0.67-0.446,0.67-0.446,0.717-0.511c0.064-0.048-0.668-0.161-0.939-1.102c-0.271-0.942-0.832-1.326-0.16-1.229
			c0,0-1.611-1.102-1.342-1.708c0.287-0.607,0.223-0.67,0.719-0.607c0,0-1.771-0.511-1.324-1.772
			c0.445-1.277,0.717-1.277,0.717-1.277l0.064-0.176c0,0-0.336-1.596,0.16-1.708c0.494-0.112,0.176-0.176,0.176-0.176
			s0.111-0.559,0.494-0.447c0,0-0.063-0.879,0.605-0.271c0.672,0.606,1.006,1.389,1.006,1.389s2.156,0.495,2.379,3.496
			c0,0,1.215,0.272,1.102,3.05c0,0,0.32,0.575-0.113,1.708c-0.383,1.054-0.047,0.67,0.227,0.496c0.285-0.16,1.164-1.262,0.939,0.558
			c-0.223,1.836-0.447,2.283-0.717,2.778c0,0,0.336,0.048,0.383,0.384c0.063,0.336-0.113,0.223-0.383,0.894
			c-0.273,0.655-0.48,1.054-0.496,1.661c-0.064,2.22-0.83,2.603-0.83,2.603l-1.387,0.606V32.682z"/>
		<path fill-rule="evenodd" clip-rule="evenodd" fill="#FFFFFF" d="M51.926,52.847c0,0,1.004,0,1.004-0.719
			c0-0.718-0.223-1.66-0.063-1.884c0.176-0.224,0.113-0.718,0.559-0.494c0,0,1.102-0.16,1.055-0.56
			c-0.049-0.383-0.049-0.544-0.113-0.766c-0.047-0.225,0.271-0.783,0.605-0.783c0.336,0,0.607-0.271,0.496-0.559
			c-0.096-0.271-0.719-1.054-0.654-1.548c0.047-0.496-0.176-1.056,0.047-1.325c0.225-0.288,0.4-0.336,0.607-0.384
			c0.225-0.064,0.512-0.782,0.512-1.164c0-0.4-0.111-0.735-0.111-0.943c0-0.224,0.271-0.671,0.559-0.671
			c0.271,0,0.43-0.336,0.605-0.447c0.158-0.111,0.271-0.111,0.605-0.111c0.336,0,0.447-0.494,0.719-0.655
			c0.271-0.176-0.049,0.097,0.607-0.111c0.67-0.223,0.941-0.622,1.004-0.846c0.049-0.207,1.102-0.319,1.215,0.288
			c0.111,0.606,0.111,1.277,0.063,1.5c0,0,1.102,1.484,0.654,3.32c-0.447,1.837-1.389,2.555-1.389,2.555s0.893-0.064,0.398,1.102
			s-1.723,2.667-3.047,3.21c0,0,0.717,0.287,0.111,0.846c-0.607,0.543-1.66,0.831-1.66,0.831s0.318,0.541-1.5,0.494
			c0,0,0.447,0.447-1.885,0.559l-1.387-0.063L51.926,52.847z"/>
		<path fill="none" stroke="#231F20" stroke-width="0.22" stroke-miterlimit="2.613" d="M51.926,52.847c0,0,1.004,0,1.004-0.719
			c0-0.718-0.223-1.66-0.063-1.884c0.176-0.224,0.113-0.718,0.559-0.494c0,0,1.102-0.16,1.055-0.56
			c-0.049-0.383-0.049-0.544-0.113-0.766c-0.047-0.225,0.271-0.783,0.605-0.783c0.336,0,0.607-0.271,0.496-0.559
			c-0.096-0.271-0.719-1.054-0.654-1.548c0.047-0.496-0.176-1.056,0.047-1.325c0.225-0.288,0.4-0.336,0.607-0.384
			c0.225-0.064,0.512-0.782,0.512-1.164c0-0.4-0.111-0.735-0.111-0.943c0-0.224,0.271-0.671,0.559-0.671
			c0.271,0,0.43-0.336,0.605-0.447c0.158-0.111,0.271-0.111,0.605-0.111c0.336,0,0.447-0.494,0.719-0.655
			c0.271-0.176-0.049,0.097,0.607-0.111c0.67-0.223,0.941-0.622,1.004-0.846c0.049-0.207,1.102-0.319,1.215,0.288
			c0.111,0.606,0.111,1.277,0.063,1.5c0,0,1.102,1.484,0.654,3.32c-0.447,1.837-1.389,2.555-1.389,2.555s0.893-0.064,0.398,1.102
			s-1.723,2.667-3.047,3.21c0,0,0.717,0.287,0.111,0.846c-0.607,0.543-1.66,0.831-1.66,0.831s0.318,0.541-1.5,0.494
			c0,0,0.447,0.447-1.885,0.559l-1.387-0.063L51.926,52.847z"/>
		<path fill="none" stroke="#231F20" stroke-width="0.22" stroke-miterlimit="2.613" d="M49.818,38.558c0,0,0,0.223,0.287,0.271
			c0.271,0.048,0.768,0.048,0.768,0.608c0,0.559-0.162,1.275-0.049,2.059c0.111,0.767,0.225,3.815-0.064,4.487
			c-0.271,0.67-0.543,2.105-0.494,2.872c0,0-0.383-1.484-1.053-2.379 M52.262,44.815c0,0-1.613,1.837-1.773,2.38 M51.318,37.839
			c-0.383,0-1.102,0.049-0.719,1.103 M52.037,39.612c0,0-0.83,1.548-1.053,1.883 M50.537,40.824c0,0-0.559,0.319-0.16,0.831
			c0.223,0.271,0.191,0.798,0,1.053c-0.16,0.224-0.334,0.895-0.047,1.118c0.27,0.208,0.494,0.384,0.494,0.719 M52.213,53.069
			c0,0,3.16-1.102,4.869-5.539c1.723-4.438,2.664-6.546,2.998-7.089 M58.805,40.712c0,0,0.16,0.896,0,1.278
			c-0.176,0.382-0.063,1.213-0.063,1.213 M58.135,45.088c0,0,0.383-0.607,0.893-0.767c0.496-0.176,0.941-0.831,0.941-0.831
			 M56.809,41.927c0,0-0.109,1.452-0.063,1.724c0.063,0.271-0.047,1.389,0,1.725c0.063,0.335,0.336,1.932,0.174,2.331
			c0,0,0.385-0.336,0.607-0.511c0.223-0.16,0.67-0.432,0.781-0.606c0.111-0.16,0.768-0.447,0.992-0.447 M58.742,48.36
			c-0.225,0.11-1.055,0.559-1.375,0.559c-0.334,0-0.895,0.383-1.115,0.56 M54.926,49.59c0,0,0.383,0.942,0.111,1.325 M58.965,39.723
			c0,0,0.336-1.229,0.605-1.5c0.287-0.289,0.926-0.99,0.941-1.438c0.064-1.005,0.734-1.005,0.846-1.724 M60.018,35.939
			c0,0,0.494,1.006,0.287,1.342 M61.629,37.392c-0.109,0.16-0.225,0.271-0.494,0.335c-0.287,0.048-0.719,0.272-0.941,0.719
			c-0.225,0.431-0.941,0.831-0.941,0.831 M59.141,37.281c0,0.271,0.16,1.389,0,1.82 M56.252,15.774c0,0.16-0.064,0.575,0.109,0.942
			c0.225,0.43,1.725,3.257,1.947,3.927c0.209,0.671,1.438,3.656,1.549,5.269c0.111,1.613,0.447,4.933,0.336,5.316 M59.027,27.349
			c0.334,0.224,1.053,1.167,1.053,1.501 M61.135,25.306c-0.176,0.272-0.336,0.383-0.398,0.606c-0.049,0.224-0.543,0.99-0.719,1.213
			 M57.688,24.029c0.51,0.271,2.059,1.725,2.17,2.108 M60.193,21.474c-0.176,0.288-0.336,0.894-0.4,1.229
			c-0.047,0.319-0.223,1.213-0.223,1.436 M56.428,20.42c0.492,0.335,2.314,1.612,2.488,1.948 M58.309,17.706
			c-0.063,0.271-0.174,0.271-0.223,0.719c-0.063,0.447,0.049,1.166,0,1.453 M55.98,17.595c0,0,0.16,0.287,0.334,0.559
			c0.158,0.271,0.83,0.224,1.148,0.718 M50.873,18.984c0.223,0.271,1.945,4.933,2.504,6.37c0.545,1.453,2.537,6.77,2.604,7.041
			 M54.814,28.898c0,0,0.111-0.271,0.271-0.494c0.176-0.224,0.383-0.878,0.287-1.102 M53.586,25.754c0,0,0.176-0.847,0.287-1.119
			c0.031-0.096,0.701-1.293,0.654-1.389 M52.484,22.815c0,0-0.049-0.399,0-0.782c0.047-0.382,0-0.559,0.223-0.83
			c0.223-0.287,0.383-0.559,0.447-0.719 M50.043,19.926c0.445,0.271,1.547,1.324,1.883,1.947 M50.824,23.134
			c0,0,1.883,0.832,2.33,1.725 M48.988,9.34c0.336,0.335,3,4.039,3.273,4.598c0.27,0.559,1.994,3.544,1.994,3.544 M50.105,9.228
			c0.049,0.272,0,0.384,0.111,0.671c0.113,0.271,0.049,0.831,0.049,1.038 M51.096,9.899c0.176,0.319,0.494,0.542,0.559,1.326
			c0.031,0.495,0,0.877-0.176,1.389 M53.266,12.549c0.111,0.335,0.271,1.948-0.176,2.603 M47.664,11.895
			c0.607,0.271,0.83,0.431,1.549,0.654c0.717,0.224,2.775,1.054,3.049,1.39 M49.102,14.88c0.287,0,0.828,0.16,1.387,0.383
			c0.561,0.223,2.268,1.006,3.049,1.054 M45.447,8.174c0,0,2.152,2.22,2.264,2.443 M46.723,8.222v1.166 M45.605,9.787
			c0.559,0.208,1.451,0.543,1.787,0.607 M37.512,4.454c0.559,0.288,6.545,3.002,7.264,3.114 M42.285,4.742
			c0.447,0.208,1.66,1.485,1.613,2.379 M41.07,7.839c0.162-0.159,0.434-0.271,1.055-0.335c0.607-0.048,0.99-0.271,1.166-0.383
			 M39.125,3.577c0.287,0.272,1.117,0.99,1.164,1.374c0.064,0.398,0.271,0.782,0.447,0.893c0.16,0.112,0.385,0.271,0.385,0.271
			h-0.656c-0.621,0-2.059,0-2.441,0.064"/>
		<path fill-rule="evenodd" clip-rule="evenodd" fill="#FFFFFF" d="M8.322,59.84c0.431,0.335,4.213,2.89,4.756,3.209
			c0.559,0.335,0.782,0.335,1.229,0.225c0.431-0.113,9.305-1.214,10.518-1.549c1.229-0.337,4.549-0.224,5.219-0.337
			c0.655-0.11,1.771,0.448,2.106,0.56c0.336,0.112,0.768,4.104,0.768,4.104s-0.878,0.447-1.325,0.671
			c-0.447,0.207-7.086,2.091-8.427,1.995c-1.325-0.112-9.417,0.654-10.423,0.654c-0.989,0-1.101-0.112-1.771-0.446
			c-1.101-0.544-8.204-5.205-9.081-6.195c-0.479-0.542-1.005-1.005-0.447-1.788c0.559-0.767,1.213-3.209,1.213-3.88
			c0-0.654,0.223-1.325,0.782-1.437c0.558-0.111,1.995,0.223,2.666,0.336c0.654,0.111,1.101-0.113,1.101-0.113l0.335-1.213
			c0,0,1.102,0.207,1.005,1.438C8.434,57.285,8.322,59.84,8.322,59.84"/>
		<path fill="none" stroke="#231F20" stroke-width="0.22" stroke-miterlimit="2.613" d="M8.322,59.84
			c0.431,0.335,4.213,2.89,4.756,3.209c0.559,0.335,0.782,0.335,1.229,0.225c0.431-0.113,9.305-1.214,10.518-1.549
			c1.229-0.337,4.549-0.224,5.219-0.337c0.655-0.11,1.771,0.448,2.106,0.56c0.336,0.112,0.768,4.104,0.768,4.104
			s-0.878,0.447-1.325,0.671c-0.447,0.207-7.086,2.091-8.427,1.995c-1.325-0.112-9.417,0.654-10.423,0.654
			c-0.989,0-1.101-0.112-1.771-0.446c-1.101-0.544-8.204-5.205-9.081-6.195c-0.479-0.542-1.005-1.005-0.447-1.788
			c0.559-0.767,1.213-3.209,1.213-3.88c0-0.654,0.223-1.325,0.782-1.437c0.558-0.111,1.995,0.223,2.666,0.336
			c0.654,0.111,1.101-0.113,1.101-0.113l0.335-1.213c0,0,1.102,0.207,1.005,1.438C8.434,57.285,8.322,59.84,8.322,59.84z"/>
		<path fill="none" stroke="#231F20" stroke-width="0.22" stroke-miterlimit="2.613" d="M7.54,54.635c0,0,1.548,1.438-0.782,1.66
			 M8.322,59.84c0,0-3.304-2.283-4.102-2.778c-1.006-0.607-0.559-0.718,0.83-0.432"/>
		<path fill-rule="evenodd" clip-rule="evenodd" fill="#FFFFFF" d="M55.309,59.84c-0.447,0.335-4.66,3.209-5.203,3.544
			c-0.559,0.336-0.781,0.336-1.227,0.224c-0.434-0.111-8.859-1.548-10.09-1.883c-1.211-0.337-4.531-0.224-5.202-0.337
			c-0.669-0.11-1.772,0.448-2.106,0.56c-0.335,0.112,1.101,2.666,1.101,2.666s-0.989,1.885-0.542,2.108
			c0.447,0.207,7.085,2.091,8.425,1.995c1.326-0.112,8.523,1.101,9.529,1.101c0.988,0,1.102-0.11,1.771-0.446
			c1.102-0.559,9.082-5.651,9.977-6.642c0.461-0.542,0.988-1.005,0.445-1.788c-0.559-0.767-1.227-3.209-1.227-3.88
			c0-0.654-0.225-1.325-0.768-1.437c-0.559-0.111-1.996,0.223-2.666,0.336c-0.67,0.111-1.1-0.113-1.1-0.113l-0.338-1.213
			c0,0-1.117,0.207-1.004,1.438C55.197,57.285,55.309,59.84,55.309,59.84"/>
		<path fill="none" stroke="#231F20" stroke-width="0.22" stroke-miterlimit="2.613" d="M55.309,59.84
			c-0.447,0.335-4.66,3.209-5.203,3.544c-0.559,0.336-0.781,0.336-1.227,0.224c-0.434-0.111-8.859-1.548-10.09-1.883
			c-1.211-0.337-4.531-0.224-5.202-0.337c-0.669-0.11-1.772,0.448-2.106,0.56c-0.335,0.112,1.101,2.666,1.101,2.666
			s-0.989,1.885-0.542,2.108c0.447,0.207,7.085,2.091,8.425,1.995c1.326-0.112,8.523,1.101,9.529,1.101
			c0.988,0,1.102-0.11,1.771-0.446c1.102-0.559,9.082-5.651,9.977-6.642c0.461-0.542,0.988-1.005,0.445-1.788
			c-0.559-0.767-1.227-3.209-1.227-3.88c0-0.654-0.225-1.325-0.768-1.437c-0.559-0.111-1.996,0.223-2.666,0.336
			c-0.67,0.111-1.1-0.113-1.1-0.113l-0.338-1.213c0,0-1.117,0.207-1.004,1.438C55.197,57.285,55.309,59.84,55.309,59.84z"/>
		<path fill="none" stroke="#231F20" stroke-width="0.22" stroke-miterlimit="2.613" d="M56.09,54.635c0,0-1.563,1.438,0.768,1.66
			 M55.309,59.84c0,0,3.305-2.283,4.102-2.778c1.006-0.607,0.559-0.718-0.83-0.432"/>
		<path fill-rule="evenodd" clip-rule="evenodd" fill="#FFFFFF" d="M28.879,61.453c0.654-0.111,0.606-0.448,1.788-0.639
			c0.574-0.081,0.781,0.366,1.196,0.639c-0.176-0.208-0.718-0.527-0.527-0.608c1.309-0.621,2.044,0.017,2.476,0.656
			c0.795,1.196,1.706,2.188,1.866,3.272c0.064,0.447,0.016,0.719-0.352,1.325c-0.336,0.526-0.879,1.006-1.372,0.72
			c-0.111-0.065,0.239-0.448,0.239-0.72c-0.334,1.372-1.707,2.442-2.84,3.113c-1.165,0.671-2.09-0.926-3.032-1.55
			c1.053-0.35,1.947-0.621,3.112-0.94c0,0.319-0.111,0.271-0.111,0.606c0.08-0.543,0.111-0.64,0.207-1.182
			c0.096-0.574,0.271-1.453,0.032-2.155c-0.239-0.718-0.447-1.262-0.766-1.836C30.443,61.549,29.533,61.725,28.879,61.453"/>
		<path fill="none" stroke="#231F20" stroke-width="0.22" stroke-miterlimit="2.613" d="M28.879,61.453
			c0.654-0.111,0.606-0.448,1.788-0.639c0.574-0.081,0.781,0.366,1.196,0.639c-0.176-0.208-0.718-0.527-0.527-0.608
			c1.309-0.621,2.044,0.017,2.476,0.656c0.795,1.196,1.706,2.188,1.866,3.272c0.064,0.447,0.016,0.719-0.352,1.325
			c-0.336,0.526-0.879,1.006-1.372,0.72c-0.111-0.065,0.239-0.448,0.239-0.72c-0.334,1.372-1.707,2.442-2.84,3.113
			c-1.165,0.671-2.09-0.926-3.032-1.55c1.053-0.35,1.947-0.621,3.112-0.94c0,0.319-0.111,0.271-0.111,0.606
			c0.08-0.543,0.111-0.64,0.207-1.182c0.096-0.574,0.271-1.453,0.032-2.155c-0.239-0.718-0.447-1.262-0.766-1.836
			C30.443,61.549,29.533,61.725,28.879,61.453z"/>
		<path fill-rule="evenodd" clip-rule="evenodd" fill="#231F20" d="M4.172,62.649c0,0.256,0,0.368,0.176,0.544l-0.08,0.11
			c-0.111-0.096-0.223-0.191-0.335-0.271c-0.095-0.08-0.191-0.128-0.287-0.208l0.016-0.398l0.096-1.422
			c0.016-0.271,0.048-0.287-0.159-0.431l-0.399,0.543c-0.112,0.143-0.367,0.479-0.432,0.639c-0.08,0.191,0.081,0.304,0.192,0.399
			L2.88,62.25c-0.16-0.127-0.335-0.271-0.511-0.414c-0.191-0.145-0.383-0.272-0.575-0.415l0.08-0.096
			c0.112,0.096,0.272,0.207,0.431,0.08c0.127-0.097,0.383-0.432,0.494-0.576l0.99-1.309c0.111-0.144,0.368-0.479,0.431-0.638
			c0.08-0.193-0.08-0.305-0.208-0.384l0.081-0.112c0.207,0.159,0.431,0.336,0.638,0.51c0.16,0.114,0.335,0.226,0.495,0.337
			c0.431,0.335,0.766,0.782,0.288,1.42c-0.384,0.495-0.878,0.511-1.293,0.272L4.172,62.649z"/>
		<path fill-rule="evenodd" clip-rule="evenodd" fill="#231F20" d="M6.264,61.421c0.112-0.145,0.367-0.495,0.415-0.64
			c0.063-0.207-0.08-0.319-0.208-0.399l0.096-0.127l1.899,1.373l-0.511,0.703l-0.096-0.064c0.319-0.591,0.144-0.766-0.255-1.069
			l-0.271-0.192c-0.128-0.096-0.096-0.096-0.239,0.112l-0.798,1.102c0.494,0.415,0.766,0.208,1.038-0.111l0.08,0.063
			c-0.161,0.207-0.319,0.414-0.479,0.623c-0.127,0.191-0.271,0.399-0.399,0.59l-0.096-0.064c0.303-0.525,0.128-0.702-0.239-0.974
			l-0.559,0.767c-0.095,0.144-0.255,0.367-0.271,0.527c-0.016,0.239,0.208,0.415,0.367,0.527c0.399,0.271,0.702,0.398,1.165-0.112
			l0.08,0.064l-0.575,0.718l-2.091-1.518l0.08-0.095c0.127,0.079,0.288,0.191,0.447,0.079c0.127-0.096,0.383-0.446,0.494-0.59
			L6.264,61.421z"/>
		<path fill-rule="evenodd" clip-rule="evenodd" fill="#231F20" d="M8.147,64.741c-0.112,0.145-0.352,0.495-0.399,0.655
			c-0.08,0.224,0.128,0.319,0.256,0.416l-0.08,0.109c-0.191-0.144-0.383-0.286-0.59-0.43c-0.192-0.128-0.383-0.256-0.575-0.383
			l0.063-0.112c0.128,0.097,0.288,0.208,0.448,0.064c0.127-0.097,0.367-0.448,0.478-0.607l0.91-1.325
			c0.112-0.16,0.352-0.512,0.415-0.655c0.064-0.207-0.095-0.303-0.223-0.398l0.079-0.112c0.192,0.145,0.383,0.287,0.575,0.433
			c0.176,0.126,0.367,0.239,0.559,0.366c0.415,0.303,0.75,0.83,0.335,1.436c-0.478,0.688-1.149,0.481-1.612,0.161
			c-0.064-0.049-0.24-0.191-0.255-0.191L8.147,64.741z"/>
		<path fill-rule="evenodd" clip-rule="evenodd" fill="#231F20" d="M10.924,64.886c-0.048-0.4-0.032-0.719-0.399-0.831l0.016-0.127
			c0.224,0.063,0.43,0.127,0.654,0.191c0.224,0.032,0.446,0.078,0.67,0.144L11.85,64.39c-0.144-0.047-0.368-0.095-0.415,0.129
			c-0.048,0.206,0.015,1.117,0.031,1.373l0.128,1.532l0.75-1.183c0.159-0.253,0.623-1.037,0.671-1.292
			c0.08-0.271-0.112-0.319-0.288-0.351l0.032-0.128c0.175,0.032,0.335,0.095,0.511,0.143c0.159,0.033,0.335,0.048,0.495,0.079
			l-0.032,0.145c-0.415-0.112-0.59,0.351-0.814,0.703l-1.596,2.603l-0.144-0.032L10.924,64.886z"/>
		<path fill-rule="evenodd" clip-rule="evenodd" fill="#231F20" d="M14.403,65.827c-0.015-0.176-0.079-0.591-0.143-0.75
			c-0.08-0.191-0.271-0.16-0.431-0.144l-0.016-0.129c0.224-0.016,0.463-0.047,0.687-0.063c0.192-0.031,0.367-0.063,0.559-0.095
			c0.495-0.098,1.181-0.033,1.293,0.733c0.063,0.527-0.255,0.799-0.606,0.975l0.016,0.016c0.256-0.016,0.51,0,0.718,0.128
			c0.24,0.158,0.432,0.415,0.463,0.75c0.064,0.366-0.095,0.67-0.334,0.878c-0.24,0.208-0.591,0.239-0.862,0.271
			c-0.208,0.032-0.415,0.047-0.623,0.063c-0.271,0.049-0.526,0.096-0.797,0.128l-0.017-0.128c0.144-0.017,0.352-0.048,0.383-0.256
			c0.016-0.159-0.048-0.573-0.064-0.765L14.403,65.827z"/>
		<path fill-rule="evenodd" clip-rule="evenodd" fill="#231F20" d="M17.452,65.428c-0.032-0.176-0.08-0.606-0.144-0.749
			c-0.08-0.193-0.288-0.16-0.431-0.145l-0.016-0.128c0.224-0.033,0.447-0.048,0.686-0.063c0.175-0.033,0.367-0.08,0.559-0.097
			c0.495-0.095,1.181-0.016,1.276,0.734c0.064,0.527-0.255,0.798-0.59,0.975v0.016c0.271-0.016,0.51,0,0.718,0.144
			c0.255,0.145,0.431,0.398,0.463,0.735c0.063,0.382-0.096,0.687-0.351,0.893c-0.224,0.192-0.574,0.224-0.846,0.256
			c-0.208,0.033-0.415,0.033-0.623,0.063c-0.271,0.031-0.542,0.081-0.798,0.128l-0.016-0.128c0.143-0.03,0.351-0.047,0.367-0.255
			c0.032-0.159-0.032-0.575-0.047-0.766L17.452,65.428z"/>
		<path fill-rule="evenodd" clip-rule="evenodd" fill="#231F20" d="M20.484,65.029c-0.032-0.176-0.08-0.607-0.144-0.75
			c-0.097-0.192-0.288-0.16-0.432-0.146l-0.031-0.127c0.239-0.016,0.463-0.049,0.686-0.063c0.24-0.032,0.479-0.081,0.718-0.112
			l0.017,0.127c-0.144,0.018-0.352,0.049-0.384,0.239c-0.016,0.161,0.032,0.592,0.064,0.768l0.208,1.692
			c0.095,0.734,0.208,0.847,0.813,0.767c0.223-0.032,0.479-0.049,0.654-0.24c0.224-0.207,0.224-0.431,0.224-0.75l0.112-0.016
			l0.095,1.021H22.83c-0.813,0.127-1.628,0.24-2.441,0.352l-0.017-0.128c0.143-0.016,0.335-0.049,0.367-0.256
			c0.032-0.159-0.017-0.575-0.048-0.767L20.484,65.029z"/>
		<path fill-rule="evenodd" clip-rule="evenodd" fill="#231F20" d="M23.469,64.646c-0.017-0.193-0.079-0.608-0.144-0.768
			c-0.096-0.176-0.287-0.16-0.43-0.127l-0.016-0.145c0.223-0.016,0.446-0.031,0.686-0.064c0.239-0.03,0.463-0.08,0.702-0.111
			l0.016,0.128c-0.143,0.017-0.335,0.048-0.383,0.241c-0.016,0.175,0.032,0.589,0.064,0.765l0.208,1.612
			c0.032,0.192,0.08,0.607,0.16,0.768c0.08,0.175,0.271,0.159,0.431,0.127l0.016,0.145c-0.223,0.015-0.463,0.031-0.687,0.063
			c-0.239,0.032-0.479,0.08-0.719,0.111l-0.015-0.128c0.159-0.016,0.351-0.047,0.382-0.238c0.032-0.176-0.031-0.592-0.047-0.767
			L23.469,64.646z"/>
		<path fill-rule="evenodd" clip-rule="evenodd" fill="#231F20" d="M27.347,63.033l0.063-0.016l0.191,1.116l-0.112,0.018
			c-0.159-0.624-0.59-1.022-1.148-0.943c-0.846,0.112-0.958,1.166-0.846,2.028c0.127,0.861,0.526,1.74,1.356,1.628
			c0.67-0.095,0.83-0.702,0.878-1.404l0.079-0.017l0.176,1.262h-0.064l-0.144-0.271c-0.288,0.352-0.59,0.512-0.989,0.574
			c-0.974,0.129-1.724-0.527-1.883-1.691c-0.16-1.165,0.431-2.108,1.388-2.236c0.383-0.047,0.655,0.032,1.006,0.224L27.347,63.033z"
			/>
		<path fill-rule="evenodd" clip-rule="evenodd" fill="#231F20" d="M28.736,65.396c-0.032,0.239-0.128,0.686-0.095,0.909
			c0.032,0.24,0.271,0.192,0.415,0.175l0.032,0.145c-0.175,0.017-0.351,0.031-0.526,0.049c-0.16,0.031-0.319,0.063-0.495,0.096
			l-0.016-0.128c0.255-0.081,0.334-0.175,0.398-0.479c0.081-0.384,0.144-0.766,0.224-1.149l0.398-2.347l0.16-0.017l1.389,2.747
			c0.08,0.144,0.224,0.479,0.335,0.592c0.127,0.158,0.271,0.158,0.431,0.158l0.032,0.127c-0.224,0.032-0.463,0.049-0.687,0.081
			c-0.223,0.032-0.446,0.079-0.686,0.112l-0.016-0.129c0.143-0.016,0.367-0.048,0.335-0.271c-0.016-0.146-0.096-0.305-0.159-0.432
			l-0.272-0.559l-1.165,0.175L28.736,65.396z"/>
		<path fill-rule="evenodd" clip-rule="evenodd" fill="#231F20" d="M37.896,64.565c0.031-0.176,0.096-0.59,0.064-0.75
			c-0.033-0.208-0.225-0.239-0.385-0.272l0.018-0.127c0.238,0.047,0.461,0.097,0.701,0.127c0.238,0.033,0.494,0.064,0.734,0.097
			l-0.033,0.128c-0.143-0.016-0.35-0.049-0.43,0.127c-0.08,0.144-0.145,0.576-0.176,0.752l-0.238,1.612
			c-0.033,0.175-0.098,0.605-0.064,0.767c0.031,0.206,0.223,0.223,0.381,0.255l-0.014,0.127c-0.24-0.032-0.463-0.079-0.703-0.127
			c-0.24-0.032-0.494-0.063-0.732-0.097l0.014-0.128c0.16,0.033,0.352,0.064,0.447-0.127c0.08-0.144,0.145-0.559,0.176-0.751
			L37.896,64.565z"/>
		<path fill-rule="evenodd" clip-rule="evenodd" fill="#231F20" d="M42.189,65.029l-0.127-0.032c0.047-0.56-0.113-0.734-0.559-0.8
			c-0.193-0.03-0.48-0.094-0.496,0.082l-0.414,2.697c-0.064,0.431-0.018,0.59,0.447,0.687l-0.018,0.128
			c-0.271-0.032-0.541-0.095-0.797-0.144c-0.256-0.033-0.51-0.049-0.783-0.081l0.018-0.143c0.479,0.048,0.574-0.096,0.639-0.511
			l0.398-2.716c0.031-0.159-0.191-0.174-0.385-0.206c-0.477-0.08-0.717-0.08-0.828,0.591l-0.113-0.017l0.129-0.895l2.984,0.463
			L42.189,65.029z"/>
		<path fill-rule="evenodd" clip-rule="evenodd" fill="#231F20" d="M42.813,66.801c-0.111,0.207-0.336,0.606-0.367,0.831
			c-0.033,0.238,0.207,0.254,0.352,0.303l-0.016,0.127c-0.176-0.03-0.354-0.063-0.529-0.095c-0.174-0.032-0.334-0.048-0.51-0.063
			l0.016-0.128c0.271,0,0.385-0.065,0.527-0.335c0.191-0.336,0.383-0.688,0.576-1.022l1.084-2.123l0.16,0.015l0.525,3.05
			c0.049,0.161,0.096,0.526,0.16,0.672c0.08,0.174,0.223,0.224,0.383,0.271l-0.018,0.128c-0.223-0.032-0.461-0.08-0.684-0.128
			c-0.225-0.031-0.463-0.047-0.703-0.08l0.016-0.129c0.145,0,0.383,0.05,0.416-0.158c0.016-0.143-0.018-0.335-0.033-0.463
			l-0.096-0.622l-1.195-0.176L42.813,66.801z"/>
		<path fill-rule="evenodd" clip-rule="evenodd" fill="#231F20" d="M46.1,65.827c0.033-0.191,0.096-0.606,0.078-0.766
			c-0.029-0.208-0.238-0.24-0.379-0.272l0.014-0.127c0.24,0.048,0.463,0.096,0.688,0.143c0.254,0.032,0.494,0.064,0.732,0.112
			l-0.016,0.127c-0.16-0.031-0.352-0.063-0.447,0.112c-0.08,0.145-0.143,0.575-0.176,0.751l-0.287,1.691
			c-0.129,0.72-0.047,0.862,0.559,0.958c0.225,0.048,0.48,0.096,0.703-0.016c0.271-0.144,0.352-0.352,0.447-0.655l0.111,0.018
			l-0.207,0.989c-0.08-0.016-0.176-0.032-0.256-0.064c-0.83-0.128-1.66-0.271-2.49-0.398l0.016-0.128
			c0.16,0.017,0.352,0.048,0.447-0.128c0.078-0.143,0.145-0.56,0.176-0.75L46.1,65.827z"/>
		<path fill-rule="evenodd" clip-rule="evenodd" fill="#231F20" d="M49.195,66.386c-0.016-0.177-0.047-0.607-0.111-0.749
			c-0.078-0.192-0.271-0.178-0.43-0.178l-0.018-0.127c0.242-0.016,0.479-0.016,0.719-0.031c0.238-0.017,0.479-0.049,0.734-0.08
			v0.144c-0.16,0-0.352,0.017-0.398,0.223c-0.049,0.159-0.018,0.575,0,0.767l0.111,1.629c0.016,0.176,0.047,0.606,0.113,0.751
			c0.078,0.191,0.27,0.176,0.43,0.176l0.016,0.127c-0.24,0.016-0.479,0.016-0.703,0.032c-0.254,0.016-0.494,0.048-0.75,0.063v-0.128
			c0.16-0.015,0.352-0.015,0.398-0.224c0.049-0.16,0.018-0.591,0-0.766L49.195,66.386z"/>
		<path fill-rule="evenodd" clip-rule="evenodd" fill="#231F20" d="M51.734,67.072c0.049,0.224,0.111,0.671,0.225,0.878
			c0.109,0.208,0.332,0.081,0.461,0.016l0.064,0.112c-0.16,0.096-0.32,0.159-0.48,0.256c-0.143,0.079-0.287,0.176-0.43,0.271
			l-0.064-0.127c0.207-0.159,0.256-0.288,0.207-0.574c-0.063-0.399-0.127-0.782-0.189-1.167l-0.463-2.347l0.143-0.08l2.314,2.061
			c0.111,0.11,0.383,0.366,0.525,0.431c0.178,0.096,0.32,0.049,0.48-0.016l0.063,0.111c-0.207,0.111-0.414,0.208-0.621,0.32
			c-0.207,0.128-0.4,0.255-0.607,0.366l-0.063-0.111c0.111-0.064,0.334-0.176,0.223-0.367c-0.08-0.128-0.207-0.255-0.303-0.352
			l-0.463-0.415l-1.053,0.591L51.734,67.072z"/>
		<path fill-rule="evenodd" clip-rule="evenodd" fill="#231F20" d="M53.266,63.576c-0.271-0.127-0.414-0.127-0.639,0.031
			l-0.063-0.111c0.127-0.08,0.254-0.159,0.383-0.256c0.096-0.08,0.189-0.16,0.303-0.239l3.416,1.166h0.016l-0.957-1.294
			c-0.145-0.207-0.383-0.527-0.559-0.701c-0.24-0.225-0.336-0.128-0.559-0.017l-0.08-0.111c0.158-0.097,0.303-0.192,0.463-0.289
			c0.127-0.11,0.254-0.223,0.398-0.334l0.08,0.111c-0.127,0.128-0.256,0.192-0.16,0.431c0.08,0.176,0.416,0.654,0.561,0.846
			l1.467,1.996L57.209,64.9c-0.176-0.063-0.352-0.127-0.543-0.19l-3.162-1.086v0.016l1.135,1.565
			c0.127,0.159,0.383,0.511,0.559,0.622c0.207,0.144,0.334,0.031,0.496-0.049l0.078,0.097c-0.158,0.112-0.318,0.207-0.479,0.319
			c-0.145,0.111-0.271,0.225-0.414,0.335l-0.082-0.096c0.129-0.143,0.271-0.256,0.176-0.479c-0.094-0.191-0.318-0.494-0.445-0.67
			L53.266,63.576z"/>
		<path fill-rule="evenodd" clip-rule="evenodd" fill="#231F20" d="M57.639,62.953c0.064,0.224,0.176,0.671,0.32,0.848
			c0.143,0.206,0.334,0.047,0.461-0.033l0.082,0.111c-0.162,0.097-0.305,0.192-0.447,0.288c-0.145,0.112-0.271,0.223-0.398,0.318
			l-0.082-0.096c0.193-0.192,0.225-0.335,0.145-0.607c-0.111-0.382-0.225-0.749-0.32-1.133l-0.732-2.282l0.143-0.096l2.521,1.788
			c0.129,0.096,0.432,0.318,0.576,0.367c0.191,0.063,0.318,0,0.463-0.081l0.078,0.112c-0.189,0.128-0.383,0.256-0.574,0.384
			c-0.191,0.144-0.367,0.303-0.557,0.446l-0.082-0.111c0.113-0.079,0.305-0.224,0.176-0.398c-0.08-0.112-0.223-0.224-0.35-0.305
			l-0.496-0.366l-0.973,0.701L57.639,62.953z"/>
		<path fill-rule="evenodd" clip-rule="evenodd" fill="#FFFFFF" d="M3.773,60.414c0.431,0.336,0.75,0.56,1.213-0.047
			c0.287-0.368,0.303-0.767,0-0.99c-0.048-0.031-0.192-0.159-0.224-0.176c-0.063,0-0.127,0.079-0.16,0.127L3.773,60.414z"/>
		<path fill-rule="evenodd" clip-rule="evenodd" fill="#FFFFFF" d="M8.706,63.991c0.063,0.047,0.128,0.112,0.191,0.16
			c0.368,0.255,0.671,0.191,0.99-0.272c0.303-0.416,0.288-0.75-0.063-0.989c-0.255-0.176-0.24-0.176-0.383,0.032L8.706,63.991z"/>
		<path fill-rule="evenodd" clip-rule="evenodd" fill="#FFFFFF" d="M15.01,66.338l0.143-0.032c0.192-0.015,0.335-0.032,0.495-0.176
			c0.16-0.159,0.176-0.384,0.128-0.638c-0.048-0.464-0.288-0.671-0.67-0.606c-0.064,0-0.224,0.015-0.255,0.048
			c-0.032,0.047,0,0.191,0,0.223L15.01,66.338z"/>
		<path fill-rule="evenodd" clip-rule="evenodd" fill="#FFFFFF" d="M15.17,67.359c0.015,0.177,0.063,0.494,0.127,0.655
			c0.112,0.207,0.319,0.175,0.495,0.144c0.415-0.048,0.575-0.383,0.495-0.878c-0.032-0.287-0.159-0.527-0.398-0.64
			c-0.208-0.095-0.463-0.047-0.687-0.016l-0.128,0.016L15.17,67.359z"/>
		<path fill-rule="evenodd" clip-rule="evenodd" fill="#FFFFFF" d="M18.042,65.922l0.144-0.015c0.191-0.032,0.351-0.032,0.494-0.176
			c0.16-0.159,0.176-0.399,0.144-0.638c-0.064-0.464-0.303-0.672-0.686-0.623c-0.048,0.015-0.223,0.015-0.239,0.063
			c-0.032,0.031-0.016,0.176,0,0.224L18.042,65.922z"/>
		<path fill-rule="evenodd" clip-rule="evenodd" fill="#FFFFFF" d="M18.202,66.961c0.016,0.176,0.064,0.495,0.145,0.638
			c0.095,0.225,0.303,0.192,0.478,0.16c0.415-0.049,0.575-0.368,0.511-0.862c-0.047-0.303-0.159-0.543-0.415-0.655
			c-0.208-0.095-0.462-0.047-0.686-0.032l-0.127,0.032L18.202,66.961z"/>
		<polygon fill-rule="evenodd" clip-rule="evenodd" fill="#FFFFFF" points="29.789,64.854 29.103,63.464 28.831,64.997 		"/>
		<polygon fill-rule="evenodd" clip-rule="evenodd" fill="#FFFFFF" points="44.01,66.625 43.754,65.094 43.035,66.467 		"/>
		<polygon fill-rule="evenodd" clip-rule="evenodd" fill="#FFFFFF" points="52.531,66.178 51.383,65.141 51.67,66.674 		"/>
		<polygon fill-rule="evenodd" clip-rule="evenodd" fill="#FFFFFF" points="58.34,61.979 57.064,61.069 57.543,62.555 		"/>
	</g>
</g>
</svg>
